<svg xmlns="http://www.w3.org/2000/svg" xmlns:xlink="http://www.w3.org/1999/xlink" viewBox="0 0 159.93 50.32"><defs><style>.cls-1{fill:none;}.cls-2{clip-path:url(#clip-path);}.cls-3{fill:#231f20;}.cls-4{fill:#5d3085;}</style><clipPath id="clip-path" transform="translate(0)"><rect class="cls-1" width="159.93" height="50.31"/></clipPath></defs><g id="Layer_2" data-name="Layer 2"><g id="Layer_1-2" data-name="Layer 1"><g class="cls-2"><path class="cls-3" d="M14.56,27.23v9.06a10.47,10.47,0,0,1-3.85.79,9.65,9.65,0,0,1-7.6-3.62A13.11,13.11,0,0,1,0,24.62a13.25,13.25,0,0,1,3.74-9.54,12.29,12.29,0,0,1,9.2-3.88,12.93,12.93,0,0,1,5.56,1.24,10.47,10.47,0,0,1,4.16,3.33q2.54,3.47,2.53,10v8.67q0,7.05-3.75,11.45a12.28,12.28,0,0,1-9.79,4.4,14.71,14.71,0,0,1-4.63-1v-9a7.22,7.22,0,0,0,3.67,1,4.61,4.61,0,0,0,3.87-1.75,8.12,8.12,0,0,0,1.36-5V24.72c0-2.76-1.05-4.15-3.15-4.15a3.09,3.09,0,0,0-2.34,1.1,3.62,3.62,0,0,0-1,2.52,3.48,3.48,0,0,0,1,2.51,3.11,3.11,0,0,0,2.36,1,3.73,3.73,0,0,0,1.82-.48" transform="translate(0)"/><path class="cls-3" d="M43.14,11.49V22.05a3.57,3.57,0,0,0-1.76-.58q-2.54,0-2.53,4.12V38.08H29.57V23.69q0-5.7,2.93-9.1a9.79,9.79,0,0,1,7.81-3.39,18.35,18.35,0,0,1,2.83.29" transform="translate(0)"/><path class="cls-3" d="M59.6,28.21V38.43a11.53,11.53,0,0,1-2.08.21,12.29,12.29,0,0,1-9.3-3.91,13.64,13.64,0,0,1-3.72-9.8,13.6,13.6,0,0,1,3.76-9.71,12.07,12.07,0,0,1,9.14-4q6,0,9.46,3.73t3.46,10.21V38.09H61V25.88a5.32,5.32,0,0,0-.95-3.32,3.08,3.08,0,0,0-2.57-1.25A3.36,3.36,0,0,0,55,22.45a4.07,4.07,0,0,0-.1,5.39,3.2,3.2,0,0,0,2.46,1.05,4,4,0,0,0,2.25-.68" transform="translate(0)"/><path class="cls-3" d="M89.14,17.59V27.94H85V38.08H75.72V15.72a15.5,15.5,0,0,1,1.22-6.45,13.24,13.24,0,0,1,4.67-5.56,11.42,11.42,0,0,1,6.54-2.15l1,0V11.94l-.47,0A3.25,3.25,0,0,0,86,13.15a5.76,5.76,0,0,0-1,3.54v.9Z" transform="translate(0)"/><path class="cls-3" d="M97.87,0a4.42,4.42,0,0,1,3.26,1.41,4.67,4.67,0,0,1,1.37,3.34,4.63,4.63,0,0,1-1.3,3.39,4.87,4.87,0,0,1-6.67,0,4.63,4.63,0,0,1-1.3-3.39,4.64,4.64,0,0,1,1.38-3.34A4.39,4.39,0,0,1,97.87,0m4.61,38.08H93.2V11.75h9.28Z" transform="translate(0)"/></g><path class="cls-3" d="M131.42,11.75l-4.54,9.59,6.75,16.74H123.36l-5.8-17.19,4.21-9.14ZM117.21,38.08h-9.27V2h9.27Z" transform="translate(0)"/><polygon class="cls-4" points="139.12 13.67 149.88 19.86 146.89 10.57 140.15 10.56 139.12 13.67"/><polygon class="cls-4" points="148.35 11.4 151.85 23.87 155.91 15.06 151.15 9.97 148.35 11.4"/><polygon class="cls-4" points="150.71 27.88 159.43 24.7 159.45 17.52 156.52 16.43 150.71 27.88"/><polygon class="cls-4" points="146.88 29.96 155.15 34.28 159.93 29.21 158.59 26.24 146.88 29.96"/><polygon class="cls-4" points="153.89 34.94 143.14 28.75 146.12 38.04 152.86 38.06 153.89 34.94"/><polygon class="cls-4" points="144.63 37.16 141.13 24.69 137.07 33.5 141.83 38.59 144.63 37.16"/><polygon class="cls-4" points="136.49 31.88 142.3 20.43 133.58 23.61 133.57 30.79 136.49 31.88"/><polygon class="cls-4" points="133.96 22.14 145.67 18.41 137.4 14.09 132.62 19.16 133.96 22.14"/></g></g></svg>