<svg width="35" height="35" viewBox="0 0 35 35" fill="none" xmlns="http://www.w3.org/2000/svg">
<circle opacity="0.9" cx="17.4712" cy="17.7146" r="16.854" fill="#444040"/>
<path d="M17.1271 10.6291C19.3284 10.6291 19.6036 10.6291 20.4979 10.6979C22.768 10.7667 23.7999 11.8673 23.8687 14.0687C23.9375 14.963 23.9375 15.1693 23.9375 17.3707C23.9375 19.572 23.9375 19.8472 23.8687 20.6727C23.7999 22.874 22.6992 23.9747 20.4979 24.0435C19.6036 24.1123 19.3972 24.1123 17.1271 24.1123C14.9258 24.1123 14.6506 24.1123 13.8251 24.0435C11.555 23.9747 10.5231 22.874 10.4543 20.6727C10.3855 19.7784 10.3855 19.572 10.3855 17.3707C10.3855 15.1693 10.3855 14.8942 10.4543 14.0687C10.5231 11.8673 11.6237 10.7667 13.8251 10.6979C14.6506 10.6291 14.9258 10.6291 17.1271 10.6291ZM17.1271 9.11565C14.857 9.11565 14.5818 9.11565 13.7563 9.18444C10.7294 9.32202 9.07845 10.973 8.94086 13.9999C8.87207 14.8254 8.87207 15.1005 8.87207 17.3707C8.87207 19.6408 8.87207 19.916 8.94086 20.7415C9.07845 23.7683 10.7294 25.4193 13.7563 25.5569C14.5818 25.6257 14.857 25.6257 17.1271 25.6257C19.3972 25.6257 19.6724 25.6257 20.4979 25.5569C23.5247 25.4193 25.1757 23.7683 25.3133 20.7415C25.3821 19.916 25.3821 19.6408 25.3821 17.3707C25.3821 15.1005 25.3821 14.8254 25.3133 13.9999C25.1757 10.973 23.5247 9.32202 20.4979 9.18444C19.6724 9.11565 19.3972 9.11565 17.1271 9.11565ZM17.1271 13.1056C14.7882 13.1056 12.862 15.0317 12.862 17.3707C12.862 19.7096 14.7882 21.6358 17.1271 21.6358C19.466 21.6358 21.3922 19.7096 21.3922 17.3707C21.3922 15.0317 19.466 13.1056 17.1271 13.1056ZM17.1271 20.1223C15.6137 20.1223 14.3754 18.8841 14.3754 17.3707C14.3754 15.8572 15.6137 14.619 17.1271 14.619C18.6405 14.619 19.8788 15.8572 19.8788 17.3707C19.8788 18.8841 18.6405 20.1223 17.1271 20.1223ZM21.5298 12.0049C20.9794 12.0049 20.5667 12.4177 20.5667 12.968C20.5667 13.5183 20.9794 13.9311 21.5298 13.9311C22.0801 13.9311 22.4929 13.5183 22.4929 12.968C22.4929 12.4177 22.0801 12.0049 21.5298 12.0049Z" fill="#FAFCFE"/>
</svg>
